<?xml version="1.0" standalone="no"?>
<!DOCTYPE svg PUBLIC "-//W3C//DTD SVG 20010904//EN"
 "http://www.w3.org/TR/2001/REC-SVG-20010904/DTD/svg10.dtd">
<svg version="1.0" xmlns="http://www.w3.org/2000/svg"
 width="700.000000pt" height="700.000000pt" viewBox="0 0 700.000000 700.000000"
 preserveAspectRatio="xMidYMid meet">
<metadata>
Created by potrace 1.11, written by Peter Selinger 2001-2013
</metadata>
<g transform="translate(0.000000,700.000000) scale(0.100000,-0.100000)"
fill="#000000" stroke="none">
<path d="M3436 6969 l-31 -27 -1 -357 c-1 -196 -4 -358 -7 -361 -2 -3 -91 45
-196 105 -166 95 -195 108 -219 101 -51 -15 -59 -21 -74 -53 -18 -39 -9 -84
24 -113 19 -17 242 -148 418 -246 19 -11 39 -24 44 -28 9 -9 13 -506 4 -515
-5 -5 -190 100 -737 417 -113 65 -215 118 -228 118 -89 0 -134 -110 -70 -167
17 -15 568 -337 789 -461 146 -82 248 -146 249 -156 2 -46 1 -798 -2 -800 -2
-2 -65 42 -141 98 -75 55 -226 166 -335 245 -109 80 -211 155 -226 168 -34 27
-47 29 -43 6 2 -10 7 -52 11 -93 3 -41 8 -86 10 -100 2 -14 6 -54 10 -90 3
-36 8 -76 10 -90 3 -14 12 -95 20 -180 9 -85 17 -171 20 -190 14 -117 17 -150
11 -150 -3 0 -104 57 -223 126 -120 70 -238 138 -262 152 -25 14 -83 48 -131
76 l-86 51 1 585 c1 322 -2 599 -7 615 -10 38 -51 75 -84 75 -37 0 -78 -25
-92 -55 -9 -19 -12 -169 -12 -567 0 -428 -3 -539 -12 -535 -7 3 -110 61 -228
130 l-215 125 -1 268 c-2 329 1 296 -30 328 -39 38 -96 36 -134 -4 l-29 -31
-1 -221 c0 -122 -2 -223 -3 -224 -1 -1 -51 26 -111 62 -59 35 -110 64 -112 64
-3 0 -23 12 -46 26 -23 15 -63 38 -88 53 -25 14 -91 52 -145 83 -113 64 -145
73 -186 52 -35 -18 -49 -43 -49 -89 0 -56 -25 -40 533 -361 l108 -62 -96 -56
c-52 -31 -138 -81 -190 -112 -60 -34 -100 -65 -109 -82 -28 -57 7 -126 70
-138 38 -7 39 -6 340 168 l181 106 204 -119 c112 -65 215 -124 228 -129 13 -6
22 -12 20 -14 -4 -3 -525 -305 -619 -359 -199 -112 -314 -184 -331 -206 -16
-20 -20 -35 -16 -65 7 -50 34 -76 83 -82 34 -5 51 2 130 49 50 30 116 68 145
85 30 16 153 87 274 157 121 70 274 159 340 196 66 38 127 74 135 79 54 36 40
42 366 -146 170 -98 329 -189 353 -202 34 -20 40 -27 28 -34 -15 -8 -102 -47
-457 -203 -96 -42 -193 -85 -215 -95 -22 -10 -67 -30 -100 -45 l-60 -26 67
-29 c37 -16 96 -42 130 -58 35 -16 195 -87 356 -157 161 -71 289 -132 285
-136 -10 -10 -629 -367 -670 -387 -33 -16 -30 -17 -148 55 -11 7 -27 16 -35
20 -8 4 -123 70 -255 146 -132 77 -260 151 -285 165 -25 14 -110 63 -189 109
-79 46 -158 85 -176 87 -48 6 -92 -24 -101 -69 -13 -72 -1 -83 240 -223 204
-120 377 -219 469 -271 20 -11 52 -29 70 -40 17 -10 67 -39 110 -64 l78 -44
-143 -83 c-79 -46 -181 -105 -226 -132 l-84 -49 -236 137 c-138 80 -248 137
-266 138 -40 4 -75 -20 -93 -62 -12 -30 -12 -37 4 -70 15 -32 44 -52 201 -144
101 -58 185 -108 187 -110 2 -2 -105 -66 -238 -143 -371 -213 -375 -216 -388
-247 -39 -94 55 -169 146 -118 22 12 160 92 306 176 147 85 269 154 272 154 3
0 7 -101 9 -224 3 -204 5 -226 22 -245 42 -47 119 -43 153 7 16 24 18 55 18
304 1 153 3 279 6 281 4 3 98 58 194 112 22 13 87 50 144 84 58 33 106 59 108
58 1 -2 3 -250 3 -551 l1 -548 29 -29 c31 -31 70 -37 113 -18 52 24 51 8 52
659 l1 604 104 61 c99 58 575 333 593 343 8 4 4 -65 -8 -163 -2 -16 -7 -57
-10 -90 -3 -33 -7 -76 -10 -95 -2 -19 -7 -60 -10 -90 -3 -30 -8 -71 -10 -90
-5 -45 -14 -122 -20 -185 -10 -98 -16 -150 -21 -179 l-5 -29 33 25 c18 13 92
67 163 119 72 51 135 98 140 102 76 61 408 297 413 293 3 -3 6 -184 6 -402 l1
-396 -25 -18 c-14 -9 -45 -29 -70 -42 -25 -14 -229 -133 -455 -263 -225 -131
-427 -247 -449 -259 -64 -35 -86 -84 -62 -140 16 -38 62 -61 105 -53 24 5 131
62 201 107 8 5 47 27 85 49 39 22 203 116 365 210 162 93 296 168 299 166 2
-3 4 -119 5 -259 l1 -255 -238 -137 c-131 -75 -245 -146 -253 -158 -20 -29
-17 -87 6 -114 27 -33 75 -45 114 -28 17 8 105 57 196 109 90 53 166 94 169
92 2 -3 4 -164 5 -360 l1 -355 27 -26 c53 -53 140 -33 158 36 5 19 9 185 9
369 0 183 2 335 4 338 3 2 87 -43 188 -101 204 -118 235 -127 282 -81 30 31
38 64 22 102 -17 40 -26 46 -272 188 -214 123 -223 129 -223 159 -1 94 -1 295
-1 390 1 85 4 106 14 98 11 -9 255 -153 357 -210 25 -14 99 -56 165 -95 66
-38 136 -79 155 -89 19 -11 84 -49 146 -84 61 -35 121 -64 133 -64 79 0 128
93 81 152 -15 20 -317 204 -465 284 -11 6 -80 46 -154 88 -74 43 -149 86 -165
96 -17 10 -71 41 -119 69 -49 28 -93 51 -98 51 -5 0 -9 4 -9 9 0 5 -9 11 -20
14 -20 5 -20 14 -20 416 l0 410 200 -147 c111 -81 229 -167 264 -192 35 -25
111 -80 168 -123 58 -42 109 -77 112 -77 4 0 4 15 2 33 -3 17 -8 52 -10 77 -7
70 -26 251 -31 290 -2 19 -7 60 -10 90 -3 30 -8 71 -10 90 -2 19 -7 62 -10 95
-3 33 -8 76 -10 95 -11 85 -15 140 -11 140 3 0 40 -20 82 -45 41 -25 77 -45
79 -45 2 0 32 -18 67 -39 35 -21 80 -47 99 -58 19 -10 111 -62 205 -117 l170
-98 0 -604 c0 -592 1 -605 21 -632 24 -33 77 -48 115 -33 60 23 58 7 60 604 0
301 2 547 4 547 1 0 103 -58 226 -129 l223 -128 1 -276 c0 -296 3 -314 51
-336 39 -18 80 -13 110 13 l28 24 5 230 5 230 215 -125 c392 -229 409 -238
447 -228 43 10 73 49 73 94 0 64 23 48 -498 347 l-143 82 48 30 c27 16 98 58
158 92 160 90 184 108 194 144 15 56 -19 111 -76 122 -36 7 -55 -2 -375 -189
l-146 -85 -57 34 c-31 19 -58 34 -60 34 -2 0 -49 27 -104 60 -56 33 -106 60
-111 60 -6 0 -10 4 -10 8 0 4 -12 13 -27 20 -16 7 -41 19 -56 28 -33 18 -35
16 68 75 83 47 410 235 508 292 18 11 98 57 180 104 81 47 157 97 168 112 44
56 2 143 -72 149 -33 3 -48 -6 -709 -388 -168 -97 -320 -184 -337 -194 l-33
-16 -167 96 c-93 54 -177 102 -188 108 -11 6 -94 54 -184 106 l-163 94 53 26
c30 14 117 53 194 87 500 219 581 255 587 261 4 4 -75 43 -175 86 -100 44
-213 94 -252 111 -38 17 -145 65 -237 105 -93 41 -165 77 -160 81 13 14 685
399 694 399 8 0 608 -344 948 -543 47 -27 99 -51 115 -52 80 -7 130 74 89 144
-9 15 -54 49 -102 76 -48 28 -259 150 -470 272 l-383 221 68 40 c37 22 139 81
226 131 l158 91 167 -97 c92 -53 190 -109 217 -125 117 -67 157 -71 198 -16
39 52 18 121 -48 157 -75 41 -336 194 -333 196 3 2 242 141 298 173 318 181
340 196 340 250 0 44 -14 68 -52 88 -44 23 -69 15 -216 -70 -72 -42 -146 -84
-166 -95 -19 -11 -53 -31 -75 -45 -22 -15 -42 -26 -44 -26 -2 0 -42 -22 -88
-50 -46 -27 -87 -50 -91 -50 -4 0 -8 102 -10 226 l-3 226 -28 24 c-38 33 -95
33 -131 -1 -31 -28 -28 -4 -30 -332 l-1 -263 -225 -130 -225 -130 -5 556 -5
556 -28 24 c-44 37 -108 31 -142 -14 -19 -26 -20 -44 -20 -632 l0 -605 -175
-103 c-96 -56 -182 -106 -190 -109 -8 -4 -79 -44 -157 -89 -78 -46 -152 -88
-163 -94 -21 -11 -21 -10 -16 57 4 37 8 79 11 93 2 14 7 50 10 80 3 30 7 69 9
85 2 17 8 68 12 115 4 47 8 87 9 90 2 8 18 151 20 180 3 41 16 153 21 184 l5
28 -48 -35 c-26 -19 -194 -141 -372 -271 -177 -131 -325 -235 -328 -232 -3 2
-6 184 -7 404 l-1 399 249 144 c137 79 268 155 292 169 80 46 268 155 319 184
216 122 229 136 204 214 -21 65 -98 78 -175 29 -22 -13 -59 -35 -84 -49 -25
-14 -213 -123 -419 -242 -206 -118 -377 -214 -379 -211 -7 7 -5 502 2 514 4 5
45 31 93 58 47 26 98 55 112 63 289 168 277 159 290 207 12 40 -23 101 -63
112 -39 10 -73 -1 -155 -51 -34 -21 -64 -38 -66 -38 -2 0 -49 -27 -106 -60
-56 -33 -104 -58 -106 -56 -3 3 -6 164 -7 358 -1 387 -1 389 -61 407 -46 14
-66 10 -99 -20z m-468 -2472 c100 -77 516 -379 527 -383 9 -3 87 51 295 205
233 172 301 221 308 221 5 0 6 -22 1 -48 -4 -27 -10 -84 -14 -128 -3 -43 -8
-86 -10 -94 -2 -8 -7 -51 -11 -95 -3 -44 -8 -82 -9 -85 -2 -3 -6 -41 -10 -86
-3 -44 -10 -106 -14 -137 -5 -38 -4 -60 3 -66 6 -4 128 -59 271 -121 143 -62
265 -116 270 -120 6 -4 36 -17 68 -30 50 -20 74 -40 48 -40 -5 0 -38 -13 -73
-29 -122 -56 -179 -81 -241 -107 -34 -15 -93 -41 -132 -58 -38 -18 -104 -47
-147 -66 -42 -18 -75 -38 -73 -44 2 -6 6 -40 10 -76 3 -36 10 -103 15 -150 5
-47 12 -112 15 -145 3 -33 8 -71 10 -85 2 -14 7 -55 10 -92 4 -37 10 -93 14
-123 4 -30 5 -55 1 -55 -3 0 -31 18 -61 40 -68 52 -75 57 -184 136 -49 35
-101 73 -115 84 -85 65 -236 170 -243 170 -4 0 -25 -13 -45 -29 -98 -76 -535
-392 -545 -394 -7 -1 -11 3 -11 8 1 6 4 35 7 65 4 30 13 116 21 190 8 74 18
162 21 195 3 33 8 76 10 95 2 19 7 62 11 95 3 33 7 64 8 69 2 14 -38 33 -299
147 -126 55 -258 113 -293 129 -35 17 -67 30 -72 30 -36 0 21 30 248 129 141
63 292 130 336 149 l78 36 -6 70 c-6 74 -11 118 -26 251 -5 44 -12 105 -15
135 -3 30 -7 71 -10 90 -12 97 -17 190 -11 190 4 0 33 -20 64 -43z"/>
</g>
</svg>
